<svg width="1990" height="1990" viewBox="0 0 1990 1990" fill="none" xmlns="http://www.w3.org/2000/svg">
<rect width="1990" height="1990" fill="#0E0519"/>
<path fill-rule="evenodd" clip-rule="evenodd" d="M800.218 534.958C763.535 557.321 745.369 600.717 755.18 642.543L859.682 1088.04L510.787 791.366C478.103 763.571 431.275 759.885 394.642 782.218L294.54 843.246C236.078 878.887 230.306 961.576 283.249 1004.99L927.702 1533.5C960.375 1560.29 1006.41 1563.51 1042.49 1541.51C1091.19 1511.82 1140.05 1482.4 1188.75 1452.71C1225.43 1430.35 1243.6 1386.95 1233.79 1345.13L1129.29 899.636L1478.18 1196.31C1510.87 1224.1 1557.7 1227.78 1594.33 1205.45L1694.43 1144.42C1752.89 1108.78 1758.66 1026.09 1705.72 982.674L1061.27 454.169C1028.6 427.375 982.559 424.162 946.48 446.156C897.927 476.071 848.911 505.268 800.218 534.958Z" fill="#EEEEEE"/>
</svg>
