<svg width="3099" height="895" viewBox="0 0 3099 895" fill="none" xmlns="http://www.w3.org/2000/svg">
<path fill-rule="evenodd" clip-rule="evenodd" d="M440.479 82.2498C411.284 100.05 396.826 134.592 404.635 167.883L487.805 522.48L210.131 286.342C184.118 264.218 146.849 261.284 117.695 279.06L38.0265 327.636C-8.50156 356.005 -13.0953 421.823 29.0406 456.383L541.939 877.057C567.943 898.383 604.582 900.941 633.296 883.433C672.053 859.802 710.944 836.385 749.701 812.75C778.894 794.949 793.352 760.408 785.546 727.115L702.376 372.521L980.048 608.659C1006.06 630.781 1043.33 633.715 1072.49 615.939L1152.15 567.363C1198.68 538.994 1203.28 473.176 1161.14 438.616L648.239 17.9439C622.237 -3.38271 585.598 -5.9406 556.885 11.5662C518.242 35.3772 479.232 58.6175 440.479 82.2498Z" fill="#EEEEEE"/>
<path d="M1530.18 271.428L1602.49 520.019H1605.24L1677.55 271.428H1785.66L1669.29 624H1538.45L1422.07 271.428H1530.18ZM1916.58 624V271.428H2170.68V348.553H2012.29V409.152H2157.59V486.277H2012.29V546.875H2169.99V624H1916.58ZM2315.1 624V271.428H2467.29C2493.46 271.428 2516.35 276.191 2535.98 285.717C2555.6 295.243 2570.87 308.958 2581.77 326.862C2592.67 344.766 2598.13 366.228 2598.13 391.248C2598.13 416.497 2592.5 437.787 2581.25 455.117C2570.12 472.447 2554.46 485.531 2534.26 494.368C2514.17 503.205 2490.7 507.624 2463.85 507.624H2372.95V433.253H2444.56C2455.81 433.253 2465.4 431.876 2473.31 429.121C2481.35 426.252 2487.49 421.719 2491.73 415.521C2496.1 409.324 2498.28 401.232 2498.28 391.248C2498.28 381.148 2496.1 372.942 2491.73 366.629C2487.49 360.202 2481.35 355.497 2473.31 352.513C2465.4 349.414 2455.81 347.865 2444.56 347.865H2410.82V624H2315.1ZM2521.69 462.175L2609.83 624H2505.85L2419.77 462.175H2521.69ZM2827.47 624H2724.18L2840.55 271.428H2971.39L3087.77 624H2984.47L2907.35 368.523H2904.59L2827.47 624ZM2808.19 484.899H3002.38V556.516H2808.19V484.899Z" fill="#EEEEEE"/>
</svg>
