<svg xmlns="http://www.w3.org/2000/svg" width="100%" height="100%" viewBox="0 0 109 16" fill="none" preserveAspectRatio="xMidYMid meet" aria-hidden="true" role="img">
<path d="M9.72067 7.56716C9.3338 8.28594 8.751 8.86717 8.047 9.23625C7.28883 9.65786 6.33191 9.8688 5.17623 9.8688H2.82199V15.5325H0V0.782743H5.17844C6.13619 0.753801 7.08737 0.956694 7.95832 1.37561C8.67604 1.72322 9.27656 2.29042 9.68077 3.00323C10.0494 3.70023 10.246 4.48287 10.253 5.27982C10.26 6.07678 10.077 6.863 9.72067 7.56716ZM6.78783 6.92058C6.98247 6.715 7.13342 6.46824 7.23083 6.19702C7.32825 5.9258 7.36991 5.63608 7.35312 5.34666C7.35312 3.90999 6.58759 3.19151 5.05652 3.19151H2.82199V7.48093H5.0654C5.83979 7.48093 6.41467 7.29415 6.79005 6.92058H6.78783Z" fill="white"></path>
<path d="M22.1352 15.5325L19.0316 9.78975H17.7017V15.5325H14.8708V0.782757H20.1401C21.0989 0.753517 22.0509 0.959694 22.9201 1.38488C23.6338 1.73845 24.2329 2.30446 24.6424 3.0125C25.0562 3.77037 25.2552 4.63625 25.2159 5.5084C25.1766 6.38084 24.9009 7.22314 24.4207 7.93685C23.8814 8.71173 23.0817 9.25417 22.0222 9.56418L25.3872 15.5442L22.1352 15.5325ZM17.7017 7.56717H20.0471C20.8141 7.56717 21.377 7.37174 21.7606 6.98594C21.9561 6.76992 22.107 6.51391 22.204 6.23374C22.3008 5.95357 22.3415 5.65579 22.3236 5.35831C22.3406 5.06919 22.2991 4.77947 22.202 4.50824C22.1053 4.23702 21.9547 3.99057 21.7606 3.78439C21.3838 3.41232 20.8141 3.22405 20.0471 3.22405H17.7017V7.56717Z" fill="white"></path>
<path d="M33.2191 0.782471V15.5323H30.4036V0.782471H33.2191Z" fill="white"></path>
<path d="M51.2569 0.782471L46.0986 15.5323H42.6735L37.5149 0.782471H40.5342L44.4027 12.5097L48.251 0.782471H51.2569Z" fill="white"></path>
<path d="M64.192 12.7212H58.5901L57.6634 15.5321H54.7019L59.7583 0.761475H63.0437L68.1001 15.5321H65.1187L64.192 12.7212ZM63.425 10.3542L61.3899 4.18382L59.355 10.3542H63.425Z" fill="white"></path>
<path d="M74.8192 15.1505C74.0752 14.8345 73.4301 14.3082 72.9548 13.63C72.4912 12.9449 72.2444 12.1241 72.2498 11.2839H75.2714C75.2788 11.5542 75.3369 11.8204 75.4427 12.0668C75.5483 12.3136 75.6997 12.5359 75.8875 12.7208C76.3116 13.0938 76.8557 13.2827 77.4084 13.2487C77.9654 13.2824 78.5155 13.1066 78.96 12.7534C79.1419 12.5958 79.287 12.3968 79.3847 12.1718C79.4823 11.9466 79.5295 11.701 79.5233 11.4537C79.5363 11.055 79.3983 10.6671 79.1396 10.375C78.8701 10.0841 78.5445 9.85736 78.1842 9.70996C77.666 9.5011 77.1378 9.32119 76.6013 9.17051C75.8449 8.94703 75.1041 8.66804 74.3846 8.33595C73.8043 8.05399 73.2991 7.62583 72.9149 7.08965C72.5054 6.53498 72.3002 5.79172 72.2985 4.8602C72.2809 4.05072 72.4989 3.25526 72.9238 2.57914C73.3581 1.91467 73.9674 1.39668 74.6772 1.08906C75.4928 0.729819 76.3711 0.553189 77.2553 0.570495C78.705 0.570495 79.8838 0.940174 80.7911 1.67954C81.6987 2.41891 82.1987 3.45128 82.2918 4.77636H79.1883C79.178 4.53259 79.1174 4.29389 79.0113 4.07697C78.9048 3.85976 78.7551 3.66939 78.5721 3.51842C78.1373 3.16932 77.5985 2.99298 77.0515 3.02103C76.5748 2.99567 76.1058 3.15351 75.7324 3.46501C75.5631 3.62762 75.4305 3.82783 75.3451 4.05131C75.2594 4.2745 75.223 4.51528 75.2381 4.75547C75.233 4.93688 75.2637 5.1177 75.3277 5.28628C75.3918 5.45516 75.488 5.60823 75.6106 5.73653C75.8767 6.00984 76.1915 6.22556 76.537 6.37116C76.9067 6.53408 77.4275 6.72086 78.1 6.93152C78.8638 7.15619 79.6115 7.43815 80.3366 7.77561C80.9229 8.06771 81.4338 8.50304 81.8265 9.04489C82.2431 9.60762 82.4515 10.347 82.4515 11.263C82.4552 12.0382 82.2522 12.799 81.8663 13.4602C81.4554 14.1626 80.8617 14.7274 80.1551 15.0875C79.3195 15.5077 78.4011 15.7141 77.4747 15.69C76.5637 15.7028 75.6599 15.5193 74.8192 15.1505Z" fill="white"></path>
<path d="M90.3233 3.17024V6.86918H95.0672V9.2126H90.3233V13.1234H95.6614V15.5321H87.5012V0.761475H95.6614V3.17024H90.3233Z" fill="white"></path>
<path d="M103.66 3.17024V6.86918H108.395V9.2126H103.66V13.1234H109V15.5321H100.831V0.761475H108.991V3.17024H103.66Z" fill="white"></path>
</svg>